# xmcd
#
# Track frame offsets:
#	150
#	19614
#	30768
#	60220
#	79236
#	98592
#	128804
#	145729
#	170948
#	191905
#	215285
#	234439
#	249289
#	264567
#	282960
#
# Disc length: 4078 seconds
# Revision: 0
# Processed by: cddbd v1.5.2PL0 Copyright (c) Steve Scherf et al.
# Submitted via: dBpowerAMP V12.0
#
DISCID=c30fec0f
DTITLE=Various Artist - The Blues Magazine: Blues Is Truth
DYEAR=2013
DGENRE=Blues
TTITLE0=The Hoax - Let It Shine
TTITLE1=Sammy Hagar - Winding Down
TTITLE2=North Mississippi Allstars - Going To Brownsville
TTITLE3=Joe Bonamassa - Spanish Roots
TTITLE4=Cyril Neville - Blues Is The Truth
TTITLE5=Joanne Shaw Taylor - Tied And Bound
TTITLE6=Buddy Guy - Meet Me In Chicago
TTITLE7=Samantha Fish - Heartbreaker
TTITLE8=Babajack - Running Man
TTITLE9=Greg Coulson - End Of The Line
TTITLE10=Makuini - I Am The River
TTITLE11=Mudcats Blues Trio - Can't Stop Losing You
TTITLE12=Sunday Wilde - Down The Road Alone
TTITLE13=Jon Zeeman - You're Right I'm Wrong
TTITLE14=Groove-A-Matics - Working Class Man
EXTD=
EXTT0=
EXTT1=
EXTT2=
EXTT3=
EXTT4=
EXTT5=
EXTT6=
EXTT7=
EXTT8=
EXTT9=
EXTT10=
EXTT11=
EXTT12=
EXTT13=
EXTT14=
PLAYORDER=
